<?xml version="1.0" encoding="UTF-8"?>
<svg version="1.1" xmlns="http://www.w3.org/2000/svg" width="193" height="314">
<path d="M0 0 C2.0807324 -0.00968346 4.16046699 -0.04070928 6.2409668 -0.07226562 C7.57494534 -0.07879869 8.90893091 -0.08404797 10.24291992 -0.08789062 C11.44924072 -0.09723633 12.65556152 -0.10658203 13.8984375 -0.11621094 C17.67359298 0.28103065 20.05657358 1.27643382 23.28588867 3.24023438 C26.02899654 6.71483767 26.41621978 8.91034546 26.28588867 13.24023438 C27.12891541 13.23357254 27.97194214 13.22691071 28.84051514 13.220047 C36.78595621 13.15993131 44.73132087 13.11425766 52.6769371 13.08479786 C56.7618556 13.06914308 60.84658615 13.04790846 64.93139648 13.01391602 C68.87361752 12.98131552 72.8156578 12.96337994 76.75800323 12.95560265 C78.261913 12.95006035 79.7658129 12.93923753 81.26964569 12.9230442 C83.37651433 12.90126003 85.48263644 12.89826775 87.58959961 12.8996582 C88.78872986 12.89299637 89.98786011 12.88633453 91.22332764 12.87947083 C94.64380533 13.28239624 96.04595101 13.61931298 98.28588867 16.24023438 C98.78709412 19.16235352 98.78709412 19.16235352 98.78759766 22.77539062 C98.79570213 23.76368362 98.79570213 23.76368362 98.80397034 24.77194214 C98.81647551 26.94933021 98.79995695 29.12540048 98.78198242 31.30273438 C98.78213737 32.81583729 98.78362567 34.32894062 98.78639221 35.84204102 C98.78777699 39.01303658 98.77520568 42.18358026 98.75244141 45.35449219 C98.72405599 49.42021978 98.72679277 53.48519645 98.73953152 57.55097961 C98.74648478 60.67539897 98.73870356 63.79964458 98.72627449 66.92404175 C98.72175652 68.42316014 98.72142621 69.92229715 98.72533989 71.42141724 C98.7282488 73.51636008 98.7117627 75.61026625 98.68994141 77.70507812 C98.68453842 78.89738037 98.67913544 80.08968262 98.67356873 81.31811523 C98.28588867 84.24023438 98.28588867 84.24023438 96.88563538 86.08618164 C93.34634442 88.6394161 89.88263919 88.56516354 85.66088867 88.80273438 C84.95448242 88.84591797 84.24807617 88.88910156 83.52026367 88.93359375 C81.7757033 89.03968188 80.03082171 89.14046326 78.28588867 89.24023438 C79.84049805 89.31371094 79.84049805 89.31371094 81.42651367 89.38867188 C82.79633075 89.46373035 84.16612115 89.53927684 85.53588867 89.61523438 C86.21780273 89.64617187 86.8997168 89.67710938 87.60229492 89.70898438 C91.24533302 89.92120019 94.23377816 90.14001972 97.28588867 92.24023438 C98.89460613 95.45766928 98.43385801 98.96735146 98.43305969 102.50216675 C98.43673638 103.36676643 98.44041307 104.23136612 98.44420117 105.1221658 C98.45526613 108.03636514 98.45908657 110.95052886 98.46289062 113.86474609 C98.46915305 115.94719558 98.47579965 118.02964394 98.48280334 120.11209106 C98.50023131 125.781478 98.51076957 131.45085648 98.51900887 137.12026358 C98.52415421 140.6591173 98.53023009 144.19796837 98.53652 147.73682022 C98.55557533 158.79997285 98.5698069 169.86311878 98.57813197 180.92628467 C98.58791285 193.71419734 98.61425321 206.5019373 98.65463287 219.28978908 C98.68474472 229.16327245 98.69959608 239.03670616 98.70291299 248.91023457 C98.70526872 254.81253723 98.71429726 260.71465545 98.73937416 266.61690903 C98.76257428 272.16712452 98.76692066 277.71703307 98.75661278 283.26728439 C98.75611537 285.30711383 98.76249572 287.34695797 98.77616882 289.38674164 C98.7937621 292.16631183 98.78684393 294.9447654 98.77363586 297.72433472 C98.78460511 298.53620015 98.79557436 299.34806558 98.806876 300.184533 C98.76605844 303.72934883 98.58201304 305.8310507 96.4761076 308.74098396 C93.28049989 310.92844391 90.61719629 310.74616979 86.78588867 310.80273438 C81.67497173 310.88825169 79.22348073 311.04511201 75.28588867 314.24023438 C72.84838867 314.63867188 72.84838867 314.63867188 70.28588867 314.61523438 C69.44026367 314.62296875 68.59463867 314.63070313 67.72338867 314.63867188 C65.28588867 314.24023438 65.28588867 314.24023438 63.44190979 312.73914146 C60.84664357 310.93486279 59.48458852 310.86339721 56.35205078 310.85928345 C55.35946259 310.85082397 54.36687439 310.8423645 53.34420776 310.83364868 C52.2614859 310.83972137 51.17876404 310.84579407 50.06323242 310.85205078 C48.91815216 310.84679382 47.7730719 310.84153687 46.59329224 310.83612061 C42.80318617 310.82290251 39.01349911 310.83166548 35.22338867 310.84179688 C32.59309814 310.83977667 29.96280815 310.83686568 27.33251953 310.83309937 C21.81790618 310.82764312 16.3034134 310.8348299 10.78881836 310.84912109 C4.41533845 310.86544748 -1.95785355 310.86015887 -8.33132648 310.84364188 C-14.46521635 310.82838267 -20.59897868 310.83000393 -26.73287964 310.83878708 C-29.34203125 310.84079105 -31.95119019 310.83832295 -34.56033325 310.83134842 C-38.2042397 310.82374595 -41.84759013 310.83532213 -45.49145508 310.85205078 C-47.11553787 310.84294174 -47.11553787 310.84294174 -48.77243042 310.83364868 C-49.76501862 310.84210815 -50.75760681 310.85056763 -51.78027344 310.85928345 C-53.07220863 310.86098006 -53.07220863 310.86098006 -54.39024353 310.86271095 C-57.20690105 311.32029042 -58.53542885 312.45128005 -60.71411133 314.24023438 C-62.89770508 314.63867188 -62.89770508 314.63867188 -65.15161133 314.61523438 C-65.89282227 314.62296875 -66.6340332 314.63070313 -67.39770508 314.63867188 C-69.71411133 314.24023438 -69.71411133 314.24023438 -72.02661133 312.74414062 C-76.48237739 310.25072502 -81.20978351 310.81859406 -86.21801758 310.74414062 C-89.71411133 310.24023437 -89.71411133 310.24023437 -91.90045071 308.74014282 C-94.46434469 305.20612982 -94.27151378 301.94126271 -94.22877502 297.73779297 C-94.23572055 296.87148443 -94.24266608 296.0051759 -94.24982208 295.11261559 C-94.2681456 292.20437388 -94.25781296 289.29694299 -94.24755859 286.38867188 C-94.25461431 284.30592232 -94.26335786 282.22317789 -94.27366638 280.14044189 C-94.29620779 274.47935 -94.29320968 268.81853704 -94.28434491 263.1574173 C-94.27924282 258.43545054 -94.28652117 253.71353656 -94.29381698 248.99157524 C-94.31083077 237.85501385 -94.30723481 226.71858943 -94.29052734 215.58203125 C-94.27359882 204.08254138 -94.28944748 192.5834309 -94.32175022 181.08398247 C-94.34841478 171.21892418 -94.35573076 161.35398422 -94.34723514 151.48889351 C-94.34229749 145.59331976 -94.3445671 139.69797443 -94.36502266 133.8024292 C-94.38333081 128.26029293 -94.37748049 122.71870414 -94.35282326 117.1765976 C-94.34780016 115.14000474 -94.35134372 113.10337051 -94.36397171 111.06681061 C-94.37982228 108.29146308 -94.36502762 105.51793612 -94.34230042 102.74267578 C-94.35413614 101.93217459 -94.36597187 101.12167339 -94.37816626 100.28661156 C-94.31367156 96.42391292 -94.07411424 94.62987472 -91.41044521 91.74691772 C-87.93905377 89.80714027 -84.78849301 89.57206346 -80.90161133 89.49023438 C-79.86230469 89.44576172 -79.86230469 89.44576172 -78.80200195 89.40039062 C-77.1066492 89.3302381 -75.41037821 89.28290776 -73.71411133 89.24023438 C-74.73891602 89.21445313 -75.7637207 89.18867187 -76.81958008 89.16210938 C-78.18029832 89.10580379 -79.54097376 89.04845701 -80.90161133 88.99023438 C-81.57514648 88.97605469 -82.24868164 88.961875 -82.94262695 88.94726562 C-87.83546896 88.7085904 -90.31320718 87.73986465 -93.71411133 84.24023438 C-94.34230042 81.24255371 -94.34230042 81.24255371 -94.34521484 77.69921875 C-94.35237015 77.05157059 -94.35952545 76.40392242 -94.36689758 75.73664856 C-94.38376875 73.60170347 -94.36439594 71.46886335 -94.34301758 69.33398438 C-94.34384645 67.84712551 -94.34630651 66.36026674 -94.35032654 64.87341309 C-94.3531834 61.75956592 -94.33849578 58.6464385 -94.31103516 55.53271484 C-94.27695125 51.54428713 -94.28297089 47.55714624 -94.30169773 43.56865692 C-94.31227395 40.49905704 -94.30332453 37.42975584 -94.28831291 34.36018372 C-94.28313511 32.88980497 -94.28360806 31.41939497 -94.28985786 29.94902039 C-94.29531813 27.89241643 -94.27491452 25.837645 -94.24755859 23.78125 C-94.24136002 22.61194946 -94.23516144 21.44264893 -94.22877502 20.23791504 C-93.71411133 17.24023438 -93.71411133 17.24023438 -92.09928894 14.85980225 C-88.91494712 12.69759106 -86.85374835 12.75771855 -83.01782227 12.78613281 C-82.35399536 12.78554871 -81.69016846 12.7849646 -81.00622559 12.78436279 C-78.81977395 12.78714173 -76.63469871 12.8182211 -74.44848633 12.84960938 C-72.92963404 12.85707253 -71.41077211 12.86276511 -69.89190674 12.86676025 C-65.90007807 12.88201096 -61.90883435 12.92128715 -57.91723633 12.96557617 C-53.84179599 13.00654149 -49.76626085 13.02477391 -45.69067383 13.04492188 C-37.69821831 13.08778263 -29.70623764 13.15602633 -21.71411133 13.24023438 C-21.54008789 11.59667969 -21.54008789 11.59667969 -21.36254883 9.91992188 C-20.57470692 5.44915638 -19.19139417 4.05517763 -15.71411133 1.24023438 C-10.6397295 -0.45122623 -5.31357447 0.01497309 0 0 Z M-13.71411133 9.24023438 C-13.71411133 10.56023438 -13.71411133 11.88023438 -13.71411133 13.24023438 C-3.15411133 13.24023438 7.40588867 13.24023438 18.28588867 13.24023438 C17.95588867 11.59023437 17.62588867 9.94023437 17.28588867 8.24023438 C13.19247368 8.21553863 9.09908746 8.19737645 5.00561523 8.18530273 C3.61270391 8.18027007 2.21979787 8.17344339 0.8269043 8.16479492 C-1.17372379 8.15268286 -3.17439021 8.14753025 -5.17504883 8.14257812 C-6.3795166 8.13734131 -7.58398438 8.13210449 -8.82495117 8.12670898 C-11.65547902 8.03935546 -11.65547902 8.03935546 -13.71411133 9.24023438 Z M-56.71411133 88.24023438 C-57.04411133 88.90023437 -57.37411133 89.56023437 -57.71411133 90.24023438 C-18.11411133 90.24023438 21.48588867 90.24023438 62.28588867 90.24023438 C61.79088867 89.25023438 61.79088867 89.25023438 61.28588867 88.24023438 C22.34588867 88.24023438 -16.59411133 88.24023438 -56.71411133 88.24023438 Z " fill="#141414" transform="translate(93.714111328125,-0.240234375)"/>
<path d="M0 0 C2.0807324 -0.00968346 4.16046699 -0.04070928 6.2409668 -0.07226562 C7.57494534 -0.07879869 8.90893091 -0.08404797 10.24291992 -0.08789062 C11.44924072 -0.09723633 12.65556152 -0.10658203 13.8984375 -0.11621094 C17.67359298 0.28103065 20.05657358 1.27643382 23.28588867 3.24023438 C26.02899654 6.71483767 26.41621978 8.91034546 26.28588867 13.24023438 C27.12891541 13.23357254 27.97194214 13.22691071 28.84051514 13.220047 C36.78595621 13.15993131 44.73132087 13.11425766 52.6769371 13.08479786 C56.7618556 13.06914308 60.84658615 13.04790846 64.93139648 13.01391602 C68.87361752 12.98131552 72.8156578 12.96337994 76.75800323 12.95560265 C78.261913 12.95006035 79.7658129 12.93923753 81.26964569 12.9230442 C83.37651433 12.90126003 85.48263644 12.89826775 87.58959961 12.8996582 C88.78872986 12.89299637 89.98786011 12.88633453 91.22332764 12.87947083 C94.64380533 13.28239624 96.04595101 13.61931298 98.28588867 16.24023438 C98.78709412 19.16235352 98.78709412 19.16235352 98.78759766 22.77539062 C98.79570213 23.76368362 98.79570213 23.76368362 98.80397034 24.77194214 C98.81647551 26.94933021 98.79995695 29.12540048 98.78198242 31.30273438 C98.78213737 32.81583729 98.78362567 34.32894062 98.78639221 35.84204102 C98.78777699 39.01303658 98.77520568 42.18358026 98.75244141 45.35449219 C98.72405599 49.42021978 98.72679277 53.48519645 98.73953152 57.55097961 C98.74648478 60.67539897 98.73870356 63.79964458 98.72627449 66.92404175 C98.72175652 68.42316014 98.72142621 69.92229715 98.72533989 71.42141724 C98.7282488 73.51636008 98.7117627 75.61026625 98.68994141 77.70507812 C98.68453842 78.89738037 98.67913544 80.08968262 98.67356873 81.31811523 C98.28588867 84.24023438 98.28588867 84.24023438 96.88563538 86.08618164 C93.40108028 88.59992981 90.31606106 88.38849916 86.16960144 88.3874054 C85.05752012 88.39292043 85.05752012 88.39292043 83.9229725 88.39854687 C81.42569221 88.409606 78.92845349 88.4134313 76.43115234 88.41723633 C74.64588793 88.42349926 72.86062482 88.4301459 71.07536316 88.43714905 C66.21580126 88.4545737 61.35624922 88.46511463 56.49666381 88.47335458 C53.46234131 88.47850124 50.42802188 88.48457709 47.39370155 88.49086571 C37.90512442 88.50992119 28.41655508 88.52415201 18.92796248 88.53247768 C7.96535319 88.54225484 -2.99705443 88.56858537 -13.95959264 88.60897857 C-22.4267341 88.63910939 -30.89381764 88.65394363 -39.36101168 88.65725869 C-44.42107657 88.65961249 -49.4809261 88.66861584 -54.54093361 88.69371986 C-59.30076004 88.7169528 -64.0602286 88.72125313 -68.82009697 88.71095848 C-70.56763523 88.71046186 -72.31519081 88.7168195 -74.06267548 88.73051453 C-76.44783945 88.74816199 -78.83170912 88.74116357 -81.21687317 88.72798157 C-81.90909731 88.73895081 -82.60132146 88.74992006 -83.31452209 88.76122171 C-86.79587858 88.71474099 -88.66931847 88.2684181 -91.6434269 86.39710522 C-94.45853752 83.46482353 -94.34190495 81.72335852 -94.34521484 77.69921875 C-94.35237015 77.05157059 -94.35952545 76.40392242 -94.36689758 75.73664856 C-94.38376875 73.60170347 -94.36439594 71.46886335 -94.34301758 69.33398438 C-94.34384645 67.84712551 -94.34630651 66.36026674 -94.35032654 64.87341309 C-94.3531834 61.75956592 -94.33849578 58.6464385 -94.31103516 55.53271484 C-94.27695125 51.54428713 -94.28297089 47.55714624 -94.30169773 43.56865692 C-94.31227395 40.49905704 -94.30332453 37.42975584 -94.28831291 34.36018372 C-94.28313511 32.88980497 -94.28360806 31.41939497 -94.28985786 29.94902039 C-94.29531813 27.89241643 -94.27491452 25.837645 -94.24755859 23.78125 C-94.24136002 22.61194946 -94.23516144 21.44264893 -94.22877502 20.23791504 C-93.71411133 17.24023438 -93.71411133 17.24023438 -92.09928894 14.85980225 C-88.91494712 12.69759106 -86.85374835 12.75771855 -83.01782227 12.78613281 C-82.35399536 12.78554871 -81.69016846 12.7849646 -81.00622559 12.78436279 C-78.81977395 12.78714173 -76.63469871 12.8182211 -74.44848633 12.84960938 C-72.92963404 12.85707253 -71.41077211 12.86276511 -69.89190674 12.86676025 C-65.90007807 12.88201096 -61.90883435 12.92128715 -57.91723633 12.96557617 C-53.84179599 13.00654149 -49.76626085 13.02477391 -45.69067383 13.04492188 C-37.69821831 13.08778263 -29.70623764 13.15602633 -21.71411133 13.24023438 C-21.54008789 11.59667969 -21.54008789 11.59667969 -21.36254883 9.91992188 C-20.57470692 5.44915638 -19.19139417 4.05517763 -15.71411133 1.24023438 C-10.6397295 -0.45122623 -5.31357447 0.01497309 0 0 Z M-13.71411133 9.24023438 C-13.71411133 10.56023438 -13.71411133 11.88023438 -13.71411133 13.24023438 C-3.15411133 13.24023438 7.40588867 13.24023438 18.28588867 13.24023438 C17.95588867 11.59023437 17.62588867 9.94023437 17.28588867 8.24023438 C13.19247368 8.21553863 9.09908746 8.19737645 5.00561523 8.18530273 C3.61270391 8.18027007 2.21979787 8.17344339 0.8269043 8.16479492 C-1.17372379 8.15268286 -3.17439021 8.14753025 -5.17504883 8.14257812 C-6.3795166 8.13734131 -7.58398438 8.13210449 -8.82495117 8.12670898 C-11.65547902 8.03935546 -11.65547902 8.03935546 -13.71411133 9.24023438 Z " fill="#2E2E2E" transform="translate(93.714111328125,-0.240234375)"/>
<path d="M0 0 C5.61 0 11.22 0 17 0 C17 0.66 17 1.32 17 2 C55.94 2 94.88 2 135 2 C135 1.34 135 0.68 135 0 C140.61 0 146.22 0 152 0 C152 0.66 152 1.32 152 2 C153.55460937 2.07347656 153.55460937 2.07347656 155.140625 2.1484375 C156.51044208 2.22349597 157.88023248 2.29904247 159.25 2.375 C159.93191406 2.4059375 160.61382812 2.436875 161.31640625 2.46875 C164.95944435 2.68096581 167.94788949 2.89978534 171 5 C172.60871745 8.21743491 172.14796934 11.72711708 172.14717102 15.26193237 C172.15084771 16.12653206 172.1545244 16.99113175 172.1583125 17.88193142 C172.16937746 20.79613076 172.1731979 23.71029449 172.17700195 26.62451172 C172.18326438 28.7069612 172.18991098 30.78940957 172.19691467 32.87185669 C172.21434264 38.54124362 172.22488089 44.21062211 172.2331202 49.8800292 C172.23826554 53.41888292 172.24434142 56.95773399 172.25063133 60.49658585 C172.26968666 71.55973847 172.28391822 82.6228844 172.2922433 93.6860503 C172.30202418 106.47396296 172.32836453 119.26170293 172.36874419 132.04955471 C172.39885605 141.92303807 172.4137074 151.79647179 172.41702431 161.6700002 C172.41938005 167.57230285 172.42840859 173.47442108 172.45348549 179.37667465 C172.4766856 184.92689014 172.48103199 190.4767987 172.47072411 196.02705002 C172.4702267 198.06687946 172.47660705 200.10672359 172.49028015 202.14650726 C172.50787342 204.92607745 172.50095526 207.70453102 172.48774719 210.48410034 C172.49871644 211.29596578 172.50968568 212.10783121 172.52098733 212.94429862 C172.48016977 216.48911445 172.29612436 218.59081632 170.19021893 221.50074959 C166.99461122 223.68820953 164.33130762 223.50593542 160.5 223.5625 C155.38908306 223.64801731 152.93759206 223.80487763 149 227 C146.5625 227.3984375 146.5625 227.3984375 144 227.375 C143.154375 227.38273438 142.30875 227.39046875 141.4375 227.3984375 C139 227 139 227 137.15602112 225.49890709 C134.5607549 223.69462841 133.19869984 223.62316283 130.06616211 223.61904907 C128.57727982 223.60635986 128.57727982 223.60635986 127.05831909 223.59341431 C125.97559723 223.599487 124.89287537 223.60555969 123.77734375 223.61181641 C122.63226349 223.60655945 121.48718323 223.60130249 120.30740356 223.59588623 C116.5172975 223.58266814 112.72761044 223.59143111 108.9375 223.6015625 C106.30720946 223.5995423 103.67691947 223.59663131 101.04663086 223.59286499 C95.53201751 223.58740874 90.01752473 223.59459553 84.50292969 223.60888672 C78.12944978 223.6252131 71.75625778 223.6199245 65.38278484 223.6034075 C59.24889497 223.58814829 53.11513264 223.58976956 46.98123169 223.5985527 C44.37208008 223.60055667 41.76292114 223.59808858 39.15377808 223.59111404 C35.50987162 223.58351157 31.8665212 223.59508776 28.22265625 223.61181641 C26.59857346 223.60270737 26.59857346 223.60270737 24.94168091 223.59341431 C23.94909271 223.60187378 22.95650452 223.61033325 21.93383789 223.61904907 C21.07254776 223.62018015 20.21125763 223.62131123 19.3238678 223.62247658 C16.50721028 224.08005604 15.17868248 225.21104567 13 227 C10.81640625 227.3984375 10.81640625 227.3984375 8.5625 227.375 C7.82128906 227.38273438 7.08007812 227.39046875 6.31640625 227.3984375 C4 227 4 227 1.6875 225.50390625 C-2.76826606 223.01049065 -7.49567218 223.57835968 -12.50390625 223.50390625 C-16 223 -16 223 -18.18633938 221.49990845 C-20.75023336 217.96589544 -20.55740246 214.70102833 -20.5146637 210.49755859 C-20.52160922 209.63125006 -20.52855475 208.76494152 -20.53571075 207.87238121 C-20.55403427 204.96413951 -20.54370163 202.05670862 -20.53344727 199.1484375 C-20.54050299 197.06568794 -20.54924653 194.98294352 -20.55955505 192.90020752 C-20.58209646 187.23911562 -20.57909835 181.57830267 -20.57023358 175.91718292 C-20.56513149 171.19521616 -20.57240984 166.47330219 -20.57970566 161.75134087 C-20.59671944 150.61477947 -20.59312348 139.47835506 -20.57641602 128.34179688 C-20.55948749 116.84230701 -20.57533615 105.34319653 -20.6076389 93.84374809 C-20.63430345 83.97868981 -20.64161943 74.11374985 -20.63312382 64.24865913 C-20.62818616 58.35308539 -20.63045577 52.45774006 -20.65091133 46.56219482 C-20.66921948 41.02005856 -20.66336916 35.47846977 -20.63871193 29.93636322 C-20.63368884 27.89977036 -20.6372324 25.86313614 -20.64986038 23.82657623 C-20.66571095 21.0512287 -20.65091629 18.27770174 -20.62818909 15.50244141 C-20.64002482 14.69194021 -20.65186054 13.88143902 -20.66405493 13.04637718 C-20.59956023 9.18367854 -20.36000291 7.38964035 -17.69633389 4.50668335 C-14.22494245 2.56690589 -11.07438168 2.33182909 -7.1875 2.25 C-6.14819336 2.20552734 -6.14819336 2.20552734 -5.08789062 2.16015625 C-3.39253787 2.09000372 -1.69626688 2.04267338 0 2 C0 1.34 0 0.68 0 0 Z M-9.89609718 14.04221153 C-11.63440547 17.12512777 -11.41193635 20.26049537 -11.38095093 23.70556641 C-11.3856309 24.49822214 -11.39031087 25.29087788 -11.39513266 26.10755348 C-11.4071303 28.7723917 -11.39760698 31.43672017 -11.38818359 34.1015625 C-11.39224718 36.00844626 -11.39758786 37.91532767 -11.40411377 39.82220459 C-11.41781849 45.00807186 -11.4124757 50.19376056 -11.40297651 55.37963104 C-11.39539625 60.79947908 -11.40242097 66.21931154 -11.40713501 71.63916016 C-11.41259733 80.74188999 -11.40538845 89.84454686 -11.39111328 98.94726562 C-11.37478588 109.48044239 -11.38007405 120.01344497 -11.3965925 130.54661751 C-11.41019379 139.58021094 -11.41213367 148.61375185 -11.40427649 157.64735222 C-11.3995925 163.04709606 -11.39899501 168.44675796 -11.40888596 173.84649658 C-11.41753361 178.92230661 -11.41157406 183.99789144 -11.39420319 189.07367706 C-11.39022655 190.93975703 -11.3913924 192.80585586 -11.39799118 194.67192841 C-11.40615045 197.21302187 -11.39595369 199.75338695 -11.38095093 202.29443359 C-11.38764309 203.03849268 -11.39433526 203.78255177 -11.40123022 204.5491581 C-11.3691615 207.33618362 -11.2813502 209.50102113 -9.89609718 211.95778847 C-7.0095713 213.54440048 -4.56199694 213.37793971 -1.28149414 213.38095093 C-0.59501077 213.3856309 0.09147261 213.39031087 0.79875851 213.39513266 C3.10431545 213.40712063 5.40928215 213.39761102 7.71484375 213.38818359 C9.36557361 213.39224762 11.01630074 213.39758855 12.66702271 213.40411377 C17.15457427 213.41781331 21.64191938 213.41247789 26.12947464 213.40297651 C30.8206158 213.39539355 35.51173902 213.40242172 40.20288086 213.40713501 C48.08157533 213.41259655 55.96018551 213.40539052 63.83886719 213.39111328 C72.95423227 213.374786 82.06939607 213.38007423 91.18475628 213.3965925 C99.00392476 213.41019604 106.82303256 213.41213258 114.64220905 213.40427649 C119.3153698 213.39959374 123.98843587 213.39899162 128.66159058 213.40888596 C133.05452801 213.41753691 137.44720533 213.41156813 141.84011459 213.39420319 C143.45463504 213.3902283 145.06917728 213.39138945 146.68368912 213.39799118 C148.88325537 213.40615758 151.08198178 213.39594569 153.28149414 213.38095093 C154.51372208 213.37981985 155.74595001 213.37868877 157.01551819 213.37752342 C159.91838007 213.19625424 159.91838007 213.19625424 161.89609718 211.95778847 C163.63440547 208.87487223 163.41193635 205.73950463 163.38095093 202.29443359 C163.38797089 201.10544999 163.38797089 201.10544999 163.39513266 199.89244652 C163.4071303 197.2276083 163.39760698 194.56327983 163.38818359 191.8984375 C163.39224718 189.99155374 163.39758786 188.08467233 163.40411377 186.17779541 C163.41781849 180.99192814 163.4124757 175.80623944 163.40297651 170.62036896 C163.39539625 165.20052092 163.40242097 159.78068846 163.40713501 154.36083984 C163.41259733 145.25811001 163.40538845 136.15545314 163.39111328 127.05273438 C163.37478588 116.51955761 163.38007405 105.98655503 163.3965925 95.45338249 C163.41019379 86.41978906 163.41213367 77.38624815 163.40427649 68.35264778 C163.3995925 62.95290394 163.39899501 57.55324204 163.40888596 52.15350342 C163.41753361 47.07769339 163.41157406 42.00210856 163.39420319 36.92632294 C163.39022655 35.06024297 163.3913924 33.19414414 163.39799118 31.32807159 C163.40615045 28.78697813 163.39595369 26.24661305 163.38095093 23.70556641 C163.39098918 22.58947778 163.39098918 22.58947778 163.40123022 21.4508419 C163.3691615 18.66381638 163.2813502 16.49897887 161.89609718 14.04221153 C159.0095713 12.45559952 156.56199694 12.62206029 153.28149414 12.61904907 C152.59501077 12.6143691 151.90852739 12.60968913 151.20124149 12.60486734 C148.89568455 12.59287937 146.59071785 12.60238898 144.28515625 12.61181641 C142.63442639 12.60775238 140.98369926 12.60241145 139.33297729 12.59588623 C134.84542573 12.58218669 130.35808062 12.58752211 125.87052536 12.59702349 C121.1793842 12.60460645 116.48826098 12.59757828 111.79711914 12.59286499 C103.91842467 12.58740345 96.03981449 12.59460948 88.16113281 12.60888672 C79.04576773 12.625214 69.93060393 12.61992577 60.81524372 12.6034075 C52.99607524 12.58980396 45.17696744 12.58786742 37.35779095 12.59572351 C32.6846302 12.60040626 28.01156413 12.60100838 23.33840942 12.59111404 C18.94547199 12.58246309 14.55279467 12.58843187 10.15988541 12.60579681 C8.54536496 12.6097717 6.93082272 12.60861055 5.31631088 12.60200882 C3.11674463 12.59384242 0.91801822 12.60405431 -1.28149414 12.61904907 C-2.51372208 12.62018015 -3.74595001 12.62131123 -5.01551819 12.62247658 C-7.91838007 12.80374576 -7.91838007 12.80374576 -9.89609718 14.04221153 Z " fill="#2E2E2E" transform="translate(20,87)"/>
<path d="M0 0 C1.04175243 -0.00467997 1.04175243 -0.00467997 2.10455036 -0.00945449 C4.44307635 -0.01746291 6.7813449 -0.01109992 9.11987305 -0.00482178 C10.79178012 -0.00753038 12.463686 -0.01109058 14.1355896 -0.01544189 C18.68507673 -0.02458372 23.23447347 -0.02101428 27.78396225 -0.01468372 C32.53696696 -0.00963298 37.28996375 -0.01431259 42.04296875 -0.01745605 C50.02597448 -0.02109841 58.00894324 -0.01628955 65.99194336 -0.0067749 C75.23166904 0.00411016 84.47130647 0.00058478 93.71103001 -0.01042771 C101.63291208 -0.01949293 109.55476752 -0.02078963 117.4766531 -0.01555037 C122.21293523 -0.01242645 126.94917583 -0.01203288 131.68545532 -0.01862335 C136.13741834 -0.02438508 140.58926717 -0.02042154 145.0412178 -0.00883484 C146.67873571 -0.00618195 148.31626316 -0.00696401 149.95377731 -0.01136017 C152.18204412 -0.01679242 154.40994064 -0.01001017 156.63818359 0 C157.88738083 0.00075405 159.13657806 0.0015081 160.42362976 0.002285 C163.3190918 0.25396729 163.3190918 0.25396729 165.3190918 2.25396729 C165.3190918 10.50396729 165.3190918 18.75396729 165.3190918 27.25396729 C107.8990918 27.25396729 50.4790918 27.25396729 -8.6809082 27.25396729 C-8.6809082 0.00524004 -8.6809082 0.00524004 0 0 Z " fill="#CECECE" transform="translate(17.680908203125,22.74603271484375)"/>
<path d="M0 0 C57.42 0 114.84 0 174 0 C174 7.92 174 15.84 174 24 C170.31647539 27.68352461 169.34069532 27.37630703 164.28149414 27.38095093 C163.59501077 27.3856309 162.90852739 27.39031087 162.20124149 27.39513266 C159.89568455 27.40712063 157.59071785 27.39761102 155.28515625 27.38818359 C153.63442639 27.39224762 151.98369926 27.39758855 150.33297729 27.40411377 C145.84542573 27.41781331 141.35808062 27.41247789 136.87052536 27.40297651 C132.1793842 27.39539355 127.48826098 27.40242172 122.79711914 27.40713501 C114.91842467 27.41259655 107.03981449 27.40539052 99.16113281 27.39111328 C90.04576773 27.374786 80.93060393 27.38007423 71.81524372 27.3965925 C63.99607524 27.41019604 56.17696744 27.41213258 48.35779095 27.40427649 C43.6846302 27.39959374 39.01156413 27.39899162 34.33840942 27.40888596 C29.94547199 27.41753691 25.55279467 27.41156813 21.15988541 27.39420319 C19.54536496 27.3902283 17.93082272 27.39138945 16.31631088 27.39799118 C14.11674463 27.40615758 11.91801822 27.39594569 9.71850586 27.38095093 C7.87016396 27.37925431 7.87016396 27.37925431 5.98448181 27.37752342 C3 27 3 27 0 24 C0 16.08 0 8.16 0 0 Z " fill="#141414" transform="translate(9,51)"/>
<path d="M0 0 C0.68678109 -0.00623996 1.37356218 -0.01247993 2.08115482 -0.01890898 C4.37598857 -0.03482821 6.66975852 -0.02223999 8.96459961 -0.00964355 C10.61238219 -0.01506519 12.26015992 -0.02218808 13.90792847 -0.03088379 C18.37902085 -0.04911528 22.84974393 -0.0420504 27.32084274 -0.02936745 C32.0003636 -0.01923886 36.67985289 -0.02863273 41.359375 -0.03491211 C49.21774979 -0.04218893 57.07597421 -0.03259992 64.93432617 -0.0135498 C74.01907306 0.00821902 83.10346086 0.00116767 92.18819904 -0.02085543 C99.98876932 -0.03900845 107.78923152 -0.04156823 115.58981609 -0.03110075 C120.24850538 -0.02486528 124.9070259 -0.02403165 129.56570435 -0.0372467 C133.94561696 -0.04880318 138.32506672 -0.04078336 142.70492935 -0.01766968 C144.31215776 -0.01238148 145.91942513 -0.01389831 147.52663803 -0.02272034 C149.72124639 -0.03365579 151.91437275 -0.01993894 154.10888672 0 C155.33667343 0.0015081 156.56446014 0.0030162 157.82945251 0.00457001 C161.81662499 0.62689777 163.42740279 1.43598138 166.05444336 4.50793457 C166.55504703 7.33857713 166.72739781 9.57292056 166.68263245 12.4029541 C166.68972683 13.2039258 166.69682122 14.0048975 166.70413059 14.83014107 C166.72175081 17.51749601 166.7035861 20.20341227 166.68554688 22.89074707 C166.69068417 24.81586365 166.69796401 26.74097553 166.70722961 28.66607666 C166.72577597 33.89752295 166.71278455 39.12846091 166.69313931 44.35988617 C166.67677824 49.82997755 166.68556216 55.30003608 166.69065857 60.7701416 C166.69518237 69.9569106 166.67929189 79.14347617 166.65136719 88.3302002 C166.61931407 98.95715823 166.61933013 109.58374933 166.63658196 120.21073341 C166.65243584 130.42603795 166.6457208 140.64120772 166.62864494 150.85650635 C166.62176539 155.20733214 166.62281618 159.5580502 166.6301899 163.90887451 C166.63784089 169.03074445 166.62576528 174.15219591 166.59834099 179.27399445 C166.59144363 181.15577197 166.5913736 183.03758848 166.59855652 184.91936493 C166.60722042 187.4843515 166.59134808 190.04803745 166.56910706 192.61291504 C166.57734782 193.36116106 166.58558859 194.10940708 166.59407908 194.88032722 C166.54158337 198.15067662 166.2512688 200.20571399 164.451231 202.96962738 C161.22117359 205.0427441 159.02223021 205.011195 155.19117737 205.01586914 C154.50116715 205.0221091 153.81115693 205.02834907 153.10023731 205.03477812 C150.78848231 205.05073105 148.47777841 205.03809584 146.16601562 205.0255127 C144.50852849 205.03093288 142.85104617 205.03805496 141.193573 205.04675293 C136.69143168 205.06500308 132.18965662 205.05791147 127.68750882 205.04523659 C122.97728561 205.03511596 118.26709394 205.04449981 113.55686951 205.05078125 C105.64544032 205.05806111 97.73416043 205.04846184 89.82275391 205.02941895 C80.67611262 205.00765705 71.52982807 205.01469521 62.38319546 205.03672457 C54.53169055 205.05487791 46.68029303 205.05743699 38.82877392 205.04696989 C34.13877099 205.04073363 29.44893571 205.03990282 24.75894356 205.05311584 C20.34867666 205.06467251 15.93886944 205.05665212 11.52865219 205.03353882 C9.91013668 205.0282504 8.29158247 205.02976782 6.67308235 205.03858948 C4.46309734 205.04952422 2.25458425 205.03580875 0.04469299 205.01586914 C-1.19176688 205.01436104 -2.42822676 205.01285294 -3.70215511 205.01129913 C-7.70072045 204.39073579 -9.31315789 203.58962679 -11.94555664 200.50793457 C-12.44830674 197.67777542 -12.62265996 195.44292611 -12.58047485 192.61291504 C-12.58827481 191.81194334 -12.59607476 191.01097164 -12.60411108 190.18572807 C-12.62407518 187.49839326 -12.60824994 184.8124677 -12.5925293 182.12512207 C-12.59930347 180.20000378 -12.60820548 178.27489197 -12.61907959 176.34979248 C-12.64190321 171.11836151 -12.63302386 165.88742272 -12.61718416 160.65598297 C-12.60454108 155.18588415 -12.61626084 149.71582798 -12.62411499 144.24572754 C-12.63321618 135.05896423 -12.62121125 125.87240177 -12.59741211 116.68566895 C-12.57020003 106.0586608 -12.57901385 95.43213225 -12.60654414 84.80513573 C-12.62922075 75.68740414 -12.63244235 66.56981709 -12.61935079 57.45206642 C-12.61154834 52.00362917 -12.61053656 46.55541747 -12.62703323 41.10699463 C-12.6414576 35.98505917 -12.63149332 30.86374311 -12.60256195 25.74187469 C-12.59594027 23.86009501 -12.59786721 21.97826335 -12.60887527 20.09650421 C-12.62250005 17.53127953 -12.60545406 14.96805087 -12.58047485 12.4029541 C-12.59162846 11.65470808 -12.60278207 10.90646206 -12.61427367 10.13554192 C-12.54625448 6.54518463 -12.20043054 4.80591409 -9.83997154 2.04624176 C-6.30917683 0.16971504 -3.99364706 0.00490544 0 0 Z M-8.84165382 3.5501461 C-10.57996211 6.63306234 -10.35749299 9.76842994 -10.32650757 13.21350098 C-10.33118754 14.00615671 -10.33586751 14.79881245 -10.3406893 15.61548805 C-10.35268694 18.28032627 -10.34316362 20.94465474 -10.33374023 23.60949707 C-10.33780382 25.51638083 -10.3431445 27.42326224 -10.34967041 29.33013916 C-10.36337513 34.51600643 -10.35803235 39.70169513 -10.34853315 44.88756561 C-10.34095289 50.30741365 -10.34797761 55.72724611 -10.35269165 61.14709473 C-10.35815397 70.24982456 -10.35094509 79.35248143 -10.33666992 88.4552002 C-10.32034252 98.98837696 -10.32563069 109.52137954 -10.34214914 120.05455208 C-10.35575043 129.08814551 -10.35769031 138.12168642 -10.34983313 147.15528679 C-10.34514915 152.55503063 -10.34455165 157.95469253 -10.3544426 163.35443115 C-10.36309025 168.43024118 -10.3571307 173.50582601 -10.33975983 178.58161163 C-10.33578319 180.4476916 -10.33694904 182.31379044 -10.34354782 184.17986298 C-10.35170709 186.72095644 -10.34151033 189.26132152 -10.32650757 191.80236816 C-10.33319973 192.54642725 -10.3398919 193.29048634 -10.34678686 194.05709267 C-10.31471814 196.84411819 -10.22690684 199.0089557 -8.84165382 201.46572304 C-5.95512794 203.05233505 -3.50755358 202.88587429 -0.22705078 202.8888855 C0.45943259 202.89356547 1.14591597 202.89824544 1.85320187 202.90306723 C4.15875881 202.9150552 6.46372551 202.90554559 8.76928711 202.89611816 C10.42001697 202.90018219 12.0707441 202.90552312 13.72146606 202.91204834 C18.20901763 202.92574788 22.69636274 202.92041246 27.183918 202.91091108 C31.87505916 202.90332812 36.56618238 202.91035629 41.25732422 202.91506958 C49.13601869 202.92053112 57.01462887 202.91332509 64.89331055 202.89904785 C74.00867563 202.88272057 83.12383943 202.8880088 92.23919964 202.90452707 C100.05836812 202.91813061 107.87747592 202.92006715 115.69665241 202.91221106 C120.36981316 202.90752831 125.04287923 202.90692619 129.71603394 202.91682053 C134.10897137 202.92547148 138.50164869 202.9195027 142.89455795 202.90213776 C144.50907839 202.89816287 146.12362064 202.89932402 147.73813248 202.90592575 C149.93769873 202.91409215 152.13642514 202.90388026 154.3359375 202.8888855 C155.56816544 202.88775442 156.80039337 202.88662334 158.06996155 202.88545799 C160.97282343 202.70418881 160.97282343 202.70418881 162.95054054 201.46572304 C164.68884883 198.3828068 164.46637971 195.2474392 164.43539429 191.80236816 C164.44241425 190.61338456 164.44241425 190.61338456 164.44957602 189.40038109 C164.46157365 186.73554287 164.45205034 184.0712144 164.44262695 181.40637207 C164.44669054 179.49948831 164.45203122 177.5926069 164.45855713 175.68572998 C164.47226185 170.49986272 164.46691906 165.31417401 164.45741987 160.12830353 C164.44983961 154.70845549 164.45686433 149.28862303 164.46157837 143.86877441 C164.46704069 134.76604458 164.45983181 125.66338771 164.44555664 116.56066895 C164.42922924 106.02749218 164.43451741 95.4944896 164.45103586 84.96131706 C164.46463715 75.92772363 164.46657703 66.89418272 164.45871985 57.86058235 C164.45403586 52.46083851 164.45343837 47.06117661 164.46332932 41.66143799 C164.47197697 36.58562796 164.46601742 31.51004313 164.44864655 26.43425751 C164.44466991 24.56817754 164.44583576 22.70207871 164.45243454 20.83600616 C164.46059381 18.2949127 164.45039705 15.75454762 164.43539429 13.21350098 C164.44543253 12.09741235 164.44543253 12.09741235 164.45567358 10.95877647 C164.42360486 8.17175095 164.33579356 6.00691344 162.95054054 3.5501461 C160.06401466 1.96353409 157.6164403 2.12999486 154.3359375 2.12698364 C153.64945413 2.12230367 152.96297075 2.1176237 152.25568485 2.11280191 C149.95012791 2.10081394 147.64516121 2.11032355 145.33959961 2.11975098 C143.68886975 2.11568695 142.03814262 2.11034602 140.38742065 2.1038208 C135.89986909 2.09012126 131.41252398 2.09545668 126.92496872 2.10495806 C122.23382755 2.11254102 117.54270434 2.10551285 112.8515625 2.10079956 C104.97286803 2.09533802 97.09425785 2.10254405 89.21557617 2.11682129 C80.10021109 2.13314857 70.98504729 2.12786034 61.86968708 2.11134207 C54.0505186 2.09773853 46.2314108 2.09580199 38.41223431 2.10365808 C33.73907356 2.10834083 29.06600749 2.10894295 24.39285278 2.09904861 C19.99991535 2.09039766 15.60723803 2.09636644 11.21432877 2.11373138 C9.59980832 2.11770627 7.98526608 2.11654512 6.37075424 2.10994339 C4.17118799 2.10177699 1.97246157 2.11198888 -0.22705078 2.12698364 C-1.45927872 2.12811472 -2.69150665 2.1292458 -3.96107483 2.13041115 C-6.86393671 2.31168033 -6.86393671 2.31168033 -8.84165382 3.5501461 Z " fill="#3F3F3F" transform="translate(18.945556640625,97.4920654296875)"/>
<path d="M0 0 C1.13917374 0.00666183 1.13917374 0.00666183 2.30136108 0.01345825 C3.59247299 0.01368484 3.59247299 0.01368484 4.90966797 0.01391602 C5.83991791 0.02423859 6.77016785 0.03456116 7.72860718 0.04519653 C8.68020721 0.04802643 9.63180725 0.05085632 10.61224365 0.05377197 C13.6589706 0.06498914 16.70540621 0.09009641 19.75204468 0.11550903 C21.81454044 0.12553685 23.8770408 0.13466304 25.93954468 0.14285278 C31.00224789 0.16323404 36.06431923 0.20237972 41.12704468 0.24050903 C41.12704468 9.15050903 41.12704468 18.06050903 41.12704468 27.24050903 C26.27704468 27.24050903 11.42704468 27.24050903 -3.87295532 27.24050903 C-3.91420532 23.15675903 -3.95545532 19.07300903 -3.99795532 14.86550903 C-4.01616333 13.57854126 -4.03437134 12.29157349 -4.0531311 10.96560669 C-4.05812622 9.95546509 -4.06312134 8.94532349 -4.06826782 7.90457153 C-4.07874146 6.86768188 -4.08921509 5.83079224 -4.1000061 4.76248169 C-3.82545672 1.712917 -3.1730873 0.40746095 0 0 Z " fill="#CDCDCD" transform="translate(12.872955322265625,22.759490966796875)"/>
<path d="M0 0 C0.69479934 -0.00623996 1.38959867 -0.01247993 2.10545254 -0.01890898 C4.4333586 -0.0348626 6.76022096 -0.02222646 9.08813477 -0.00964355 C10.75709647 -0.01506366 12.42605338 -0.02218569 14.09500122 -0.03088379 C18.62806533 -0.04913349 23.16076567 -0.04204289 27.69383621 -0.02936745 C32.43522378 -0.01924828 37.17657997 -0.02863011 41.91796875 -0.03491211 C49.88067219 -0.04219168 57.84322728 -0.0325927 65.8059082 -0.0135498 C75.01505261 0.00821954 84.22384281 0.00116839 93.43297863 -0.02085543 C101.33627196 -0.03900062 109.23945858 -0.04157207 117.142766 -0.03110075 C121.86459472 -0.02486096 126.58625689 -0.02404348 131.30807495 -0.0372467 C135.74706498 -0.0487918 140.18559784 -0.04080422 144.62453842 -0.01766968 C146.25476192 -0.01237538 147.88502381 -0.01390869 149.51523209 -0.02272034 C151.73870346 -0.03363169 153.96070468 -0.01996806 156.18408203 0 C157.42883804 0.0015081 158.67359406 0.0030162 159.95606995 0.00457001 C163.66972885 0.60066106 164.85150304 1.54251635 167.09204102 4.50793457 C167.59997559 6.89819336 167.59997559 6.89819336 167.60961914 9.5802002 C167.62222778 10.58804565 167.63483643 11.59589111 167.64782715 12.63427734 C167.63973022 13.71664673 167.6316333 14.79901611 167.62329102 15.91418457 C167.62711792 17.03103638 167.63094482 18.14788818 167.6348877 19.29858398 C167.63760857 21.65890403 167.63023521 24.01925414 167.61352539 26.3795166 C167.59211985 29.99462032 167.6133228 33.6077365 167.63891602 37.22277832 C167.63627277 39.51575146 167.63114787 41.80872337 167.62329102 44.10168457 C167.63138794 45.18405396 167.63948486 46.26642334 167.64782715 47.3815918 C167.62891418 48.89335999 167.62891418 48.89335999 167.60961914 50.43566895 C167.60643677 51.3207312 167.60325439 52.20579346 167.59997559 53.11767578 C166.90269363 56.39897307 165.72204057 57.44472829 163.09204102 59.50793457 C159.95606995 60.01409245 159.95606995 60.01409245 156.18408203 60.02259827 C155.48928269 60.02954379 154.79448336 60.03648932 154.07862949 60.04364532 C151.75074211 60.06194022 149.423871 60.05164495 147.09594727 60.04138184 C145.42698401 60.04843905 143.75802716 60.05718324 142.08908081 60.06748962 C137.55603117 60.09001442 133.02333016 60.08703692 128.49024582 60.07816815 C124.70772836 60.07306291 120.92527668 60.08034696 117.142766 60.08764023 C108.22117693 60.10464869 99.29975887 60.10106344 90.37817383 60.08435059 C81.16897519 60.06742225 71.9602503 60.08327136 62.7511034 60.11557347 C54.84780522 60.14224665 46.94465471 60.14955171 39.04131603 60.14105839 C34.31943943 60.13612324 29.59784803 60.13837658 24.87600708 60.1588459 C20.4369459 60.17716785 15.99856781 60.17128752 11.55954361 60.1466465 C9.92931588 60.14162772 8.29903641 60.14515601 6.66884995 60.15779495 C4.44510937 60.17367355 2.22363272 60.1588285 0 60.13612366 C-1.24475601 60.13553735 -2.48951202 60.13495104 -3.77198792 60.13434696 C-6.90795898 59.50793457 -6.90795898 59.50793457 -9.30796051 57.12320709 C-11.06451447 54.25203729 -11.41328244 52.74517341 -11.42553711 49.41394043 C-11.43814575 48.42619125 -11.45075439 47.43844208 -11.46374512 46.42076111 C-11.45564819 45.36542679 -11.44755127 44.31009247 -11.43920898 43.22277832 C-11.44303589 42.12953751 -11.44686279 41.03629669 -11.45080566 39.90992737 C-11.45352367 37.60266192 -11.4461704 35.2953656 -11.42944336 32.98815918 C-11.40801299 29.45434038 -11.42926091 25.92255002 -11.45483398 22.38879395 C-11.45219109 20.14595091 -11.44706692 17.90310914 -11.43920898 15.66027832 C-11.44730591 14.60291977 -11.45540283 13.54556122 -11.46374512 12.4561615 C-11.45113647 11.47156448 -11.43852783 10.48696747 -11.42553711 9.47253418 C-11.42235474 8.60825302 -11.41917236 7.74397186 -11.41589355 6.85350037 C-10.07065242 0.64137823 -5.65312495 0.00684913 0 0 Z M-8.90795898 4.50793457 C-8.90795898 12.75793457 -8.90795898 21.00793457 -8.90795898 29.50793457 C48.51204102 29.50793457 105.93204102 29.50793457 165.09204102 29.50793457 C165.09204102 21.25793457 165.09204102 13.00793457 165.09204102 4.50793457 C162.25330719 1.66920074 160.39002493 2.25636906 156.41113281 2.25396729 C155.71663119 2.2508473 155.02212957 2.24772732 154.30658245 2.2445128 C151.96805646 2.23650437 149.62978791 2.24286736 147.29125977 2.24914551 C145.61935269 2.2464369 143.94744682 2.24287671 142.27554321 2.23852539 C137.72605608 2.22938357 133.17665934 2.232953 128.62717056 2.23928356 C123.87416585 2.2443343 119.12116907 2.2396547 114.36816406 2.23651123 C106.38515834 2.23286887 98.40218957 2.23767774 90.41918945 2.24719238 C81.17946377 2.25807745 71.93982635 2.25455206 62.70010281 2.24353957 C54.77822074 2.23447436 46.85636529 2.23317766 38.93447971 2.23841691 C34.19819758 2.24154084 29.46195698 2.24193441 24.72567749 2.23534393 C20.27371447 2.22958221 15.82186564 2.23354574 11.36991501 2.24513245 C9.7323971 2.24778534 8.09486965 2.24700328 6.4573555 2.24260712 C4.22908869 2.23717487 2.00119217 2.24395712 -0.22705078 2.25396729 C-1.47624802 2.25472134 -2.72544525 2.25547539 -4.01249695 2.25625229 C-7.0350725 2.20623638 -7.0350725 2.20623638 -8.90795898 4.50793457 Z M-8.90795898 30.50793457 C-8.90795898 38.42793457 -8.90795898 46.34793457 -8.90795898 54.50793457 C-5.22443438 58.19145918 -4.2486543 57.8842416 0.81054688 57.8888855 C1.49703025 57.89356547 2.18351362 57.89824544 2.89079952 57.90306723 C5.19635647 57.9150552 7.50132317 57.90554559 9.80688477 57.89611816 C11.45761462 57.90018219 13.10834176 57.90552312 14.75906372 57.91204834 C19.24661528 57.92574788 23.73396039 57.92041246 28.22151566 57.91091108 C32.91265682 57.90332812 37.60378003 57.91035629 42.29492188 57.91506958 C50.17361635 57.92053112 58.05222652 57.91332509 65.9309082 57.89904785 C75.04627329 57.88272057 84.16143709 57.8880088 93.27679729 57.90452707 C101.09596578 57.91813061 108.91507358 57.92006715 116.73425007 57.91221106 C121.40741082 57.90752831 126.08047688 57.90692619 130.75363159 57.91682053 C135.14656902 57.92547148 139.53924635 57.9195027 143.93215561 57.90213776 C145.54667605 57.89816287 147.1612183 57.89932402 148.77573013 57.90592575 C150.97529639 57.91409215 153.1740228 57.90388026 155.37353516 57.8888855 C156.60576309 57.88775442 157.83799103 57.88662334 159.1075592 57.88545799 C162.43903017 57.77372329 162.43903017 57.77372329 165.09204102 54.50793457 C165.09204102 46.58793457 165.09204102 38.66793457 165.09204102 30.50793457 C107.67204102 30.50793457 50.25204102 30.50793457 -8.90795898 30.50793457 Z " fill="#535353" transform="translate(17.907958984375,20.4920654296875)"/>
<path d="M0 0 C4.9481472 -0.04586336 9.89555974 -0.0857022 14.84375 -0.10986328 C16.52769466 -0.11993317 18.21162179 -0.13358988 19.89550781 -0.15087891 C22.31319501 -0.17508426 24.73065143 -0.18647296 27.1484375 -0.1953125 C27.9036972 -0.20563507 28.65895691 -0.21595764 29.43710327 -0.22659302 C31.2929398 -0.22699318 33.1481928 -0.12222716 35 0 C37 2 37 2 37.22705078 4.52197266 C37.21657715 5.5588623 37.20610352 6.59575195 37.1953125 7.6640625 C37.19031738 8.6742041 37.18532227 9.6843457 37.18017578 10.72509766 C37.16196777 12.01206543 37.14375977 13.2990332 37.125 14.625 C37.08375 18.70875 37.0425 22.7925 37 27 C24.79 27 12.58 27 0 27 C0 18.09 0 9.18 0 0 Z " fill="#CCC8C8" transform="translate(146,23)"/>
<path d="M0 0 C2.0807324 -0.00968346 4.16046699 -0.04070928 6.2409668 -0.07226562 C7.57494534 -0.07879869 8.90893091 -0.08404797 10.24291992 -0.08789062 C11.44924072 -0.09723633 12.65556152 -0.10658203 13.8984375 -0.11621094 C17.67359298 0.28103065 20.05657358 1.27643382 23.28588867 3.24023438 C25.95288894 6.61843471 26.65232209 8.96517784 26.28588867 13.24023438 C23.64588867 13.24023438 21.00588867 13.24023438 18.28588867 13.24023438 C17.79088867 11.26023437 17.79088867 11.26023437 17.28588867 9.24023438 C7.05588867 9.24023438 -3.17411133 9.24023438 -13.71411133 9.24023438 C-13.71411133 10.56023438 -13.71411133 11.88023438 -13.71411133 13.24023438 C-16.35411133 13.24023438 -18.99411133 13.24023438 -21.71411133 13.24023438 C-21.46052603 8.9292843 -21.12951222 6.74308809 -18.33911133 3.36523438 C-12.93286102 -1.01125397 -6.65483945 0.01875263 0 0 Z " fill="#010201" transform="translate(93.714111328125,-0.240234375)"/>
<path d="M0 0 C0.66 0 1.32 0 2 0 C2.33 8.58 2.66 17.16 3 26 C25.13069717 26.04624566 47.26138274 26.0819624 69.39211845 26.10362434 C79.66719073 26.11394851 89.94223247 26.12803056 100.21728516 26.15087891 C109.17026385 26.17077795 118.12322044 26.18370813 127.07622063 26.18817699 C131.81925257 26.1907903 136.56222128 26.19695623 141.305233 26.21146011 C145.76535875 26.22498903 150.22539493 26.2292322 154.68553925 26.22621536 C156.32628744 26.22676764 157.9670385 26.23077293 159.60776901 26.23841095 C161.84050221 26.24829899 164.07289313 26.24599164 166.30563354 26.24050903 C168.18332585 26.24327441 168.18332585 26.24327441 170.09895134 26.24609566 C173.12659768 26.30327372 173.12659768 26.30327372 175 24 C175.99 24.33 176.98 24.66 178 25 C175.71554304 27.86652233 174.54050701 28.91276007 170.86402893 29.50615788 C169.61927292 29.5089648 168.37451691 29.51177172 167.09204102 29.5146637 C166.39724168 29.52160922 165.70244234 29.52855475 164.98658848 29.53571075 C162.6587011 29.55400565 160.33182998 29.54371038 158.00390625 29.53344727 C156.334943 29.54050448 154.66598615 29.54924867 152.99703979 29.55955505 C148.46399015 29.58207985 143.93128914 29.57910235 139.3982048 29.57023358 C135.61568734 29.56512834 131.83323567 29.57241239 128.05072498 29.57970566 C119.12913592 29.59671412 110.20771786 29.59312887 101.28613281 29.57641602 C92.07693418 29.55948768 82.86820929 29.57533679 73.65906239 29.6076389 C65.7557642 29.63431208 57.8526137 29.64161714 49.94927502 29.63312382 C45.22739841 29.62818867 40.50580701 29.63044201 35.78396606 29.65091133 C31.34490488 29.66923328 26.9065268 29.66335295 22.46750259 29.63871193 C20.83727486 29.63369315 19.20699539 29.63722144 17.57680893 29.64986038 C15.35306835 29.66573898 13.13159171 29.65089393 10.90795898 29.62818909 C9.66320297 29.62760278 8.41844696 29.62701647 7.13597107 29.62641239 C4 29 4 29 1.59663391 26.63391018 C-0.2707718 23.55331738 -0.46711574 21.83766092 -0.390625 18.26171875 C-0.37773438 17.19501953 -0.36484375 16.12832031 -0.3515625 15.02929688 C-0.31804688 13.92650391 -0.28453125 12.82371094 -0.25 11.6875 C-0.22292969 10.00430664 -0.22292969 10.00430664 -0.1953125 8.28710938 C-0.14827856 5.52386553 -0.08256317 2.76237302 0 0 Z " fill="#434343" transform="translate(7,51)"/>
<path d="M0 0 C0.77085937 0.00091141 1.54171875 0.00182281 2.3359375 0.00276184 C3.12742188 -0.00152328 3.91890625 -0.00580841 4.734375 -0.01022339 C6.40884443 -0.01596989 8.08333882 -0.01646459 9.7578125 -0.01213074 C12.32595162 -0.0089692 14.8929408 -0.03243001 17.4609375 -0.05778503 C19.08593604 -0.06005777 20.71093769 -0.06076164 22.3359375 -0.05973816 C23.49222656 -0.07355278 23.49222656 -0.07355278 24.671875 -0.08764648 C26.8359375 -0.06877136 26.8359375 -0.06877136 30.3359375 0.30354309 C32.3359375 3.30354309 32.3359375 3.30354309 32.1484375 5.86604309 C31.3359375 8.30354309 31.3359375 8.30354309 28.3359375 10.30354309 C25.74566454 10.49897973 23.26560342 10.58369096 20.67578125 10.56916809 C19.55726524 10.57203827 19.55726524 10.57203827 18.41615295 10.57496643 C16.84180361 10.57632611 15.26744297 10.57264483 13.69311523 10.56428528 C11.27887929 10.55356725 8.8653849 10.56419527 6.45117188 10.57698059 C4.92187335 10.57565925 3.39257529 10.57309739 1.86328125 10.56916809 C1.13930649 10.57321655 0.41533173 10.57726501 -0.33058167 10.58143616 C-5.43412855 10.53347704 -5.43412855 10.53347704 -7.6640625 8.30354309 C-7.9140625 5.30354309 -7.9140625 5.30354309 -7.6640625 2.30354309 C-5.12230528 -0.23821413 -3.46837253 0.0462942 0 0 Z " fill="#444444" transform="translate(140.6640625,274.6964569091797)"/>
<path d="M0 0 C2.375 1.5625 2.375 1.5625 4 4 C4.42145216 7.43182475 4.6712306 9.81547541 2.9375 12.875 C-0.11683592 14.64848537 -2.4821295 15 -6 15 C-8.5 13 -8.5 13 -10 10 C-9.93931504 6.48027215 -9.66225706 4.08052467 -7.8125 1.0625 C-5.04411529 -0.56034621 -3.14454533 -0.44922076 0 0 Z " fill="#818181" transform="translate(93,30)"/>
<path d="M0 0 C2.99948609 2.10774698 3.87017778 3.32203951 4.5625 6.9375 C3.80598648 11.05629585 2.30729372 12.50115585 -1 15 C-3.5625 15.5625 -3.5625 15.5625 -6 15 C-8.3125 13.4375 -8.3125 13.4375 -10 11 C-10.5625 7.5 -10.5625 7.5 -10 4 C-6.98538624 0.64085896 -4.52721473 -0.92865943 0 0 Z " fill="#818181" transform="translate(137,30)"/>
<path d="M0 0 C4.36689189 1.42398649 4.36689189 1.42398649 5.875 3.9375 C6.375 7.375 6.375 7.375 5.875 10.9375 C3.46232733 13.62590669 1.83640127 14.7264607 -1.6875 15.5 C-4.125 14.9375 -4.125 14.9375 -6.4375 12.8125 C-8.42606368 9.4245767 -8.86365679 7.79492989 -8.125 3.9375 C-5.43583153 0.85286557 -4.12776368 -0.08255527 0 0 Z " fill="#818181" transform="translate(113.125,30.0625)"/>
<path d="M0 0 C2.3125 1.5625 2.3125 1.5625 4 4 C4.42213381 7.43737531 4.60856522 9.82090489 3 12.9375 C-0.24517189 14.66149757 -3.41991613 14.65498416 -7 14 C-9.0625 12.4375 -9.0625 12.4375 -10 10 C-9.93351603 6.21041394 -9.83225402 3.92142409 -7.25 1.0625 C-4.50508782 -0.23370853 -2.99925788 -0.52487013 0 0 Z " fill="#818181" transform="translate(71,30)"/>
<path d="M0 0 C1.9375 1.6875 1.9375 1.6875 3 4 C2.875 6.625 2.875 6.625 2 9 C-1.23253796 11.15502531 -2.25150923 11.46856135 -6 11 C-7.875 9.9375 -7.875 9.9375 -9 8 C-8.8125 4.375 -8.8125 4.375 -8 1 C-5.17116253 -0.41441874 -3.12623255 -0.31900332 0 0 Z " fill="#A7A7A7" transform="translate(43,32)"/>
<path d="M0 0 C3.0625 0.25 3.0625 0.25 6.0625 2.25 C6.46157251 5.37606798 6.53130951 7.39511207 5 10.1875 C1.88107551 11.89787795 -0.59307801 11.05513863 -3.9375 10.25 C-5.31875018 7.48749964 -5.12829306 5.30268901 -4.9375 2.25 C-2.9375 0.25 -2.9375 0.25 0 0 Z " fill="#A8A8A8" transform="translate(21.9375,31.75)"/>
<path d="M0 0 C2.97 0 5.94 0 9 0 C9.02688151 1.64574566 9.04634123 3.29161413 9.0625 4.9375 C9.07410156 5.85402344 9.08570313 6.77054688 9.09765625 7.71484375 C9 10 9 10 8 11 C4.5 11.125 4.5 11.125 1 11 C0 10 0 10 -0.09765625 7.71484375 C-0.08605469 6.79832031 -0.07445312 5.88179687 -0.0625 4.9375 C-0.05347656 4.01839844 -0.04445312 3.09929688 -0.03515625 2.15234375 C-0.02355469 1.44207031 -0.01195312 0.73179688 0 0 Z " fill="#D22525" transform="translate(154,32)"/>
<path d="M0 0 C2.64 0 5.28 0 8 0 C8 3.63 8 7.26 8 11 C5.36 11 2.72 11 0 11 C0 7.37 0 3.74 0 0 Z " fill="#202020" transform="translate(167,32)"/>
<path d="M0 0 C5.61 0 11.22 0 17 0 C16 3 16 3 14 4 C12.19051505 4.12176503 10.37603729 4.17545792 8.5625 4.1875 C7.59441406 4.20167969 6.62632812 4.21585937 5.62890625 4.23046875 C3 4 3 4 0 2 C0 1.34 0 0.68 0 0 Z " fill="#161616" transform="translate(155,87)"/>
<path d="M0 0 C5.61 0 11.22 0 17 0 C16 3 16 3 14 4 C12.19051505 4.12176503 10.37603729 4.17545792 8.5625 4.1875 C7.59441406 4.20167969 6.62632813 4.21585937 5.62890625 4.23046875 C3 4 3 4 0 2 C0 1.34 0 0.68 0 0 Z " fill="#161616" transform="translate(20,87)"/>
<path d="M0 0 C5.94 0 11.88 0 18 0 C14 4 14 4 11.5625 4.53125 C10.716875 4.5209375 9.87125 4.510625 9 4.5 C8.154375 4.5103125 7.30875 4.520625 6.4375 4.53125 C4 4 4 4 0 0 Z " fill="#111111" transform="translate(155,310)"/>
<path d="M0 0 C5.94 0 11.88 0 18 0 C14 4 14 4 11.81640625 4.49609375 C7.09524598 4.37335995 3.82942962 4.08824969 0 1 C0 0.67 0 0.34 0 0 Z " fill="#121212" transform="translate(19,310)"/>
<path d="M0 0 C2.31 0 4.62 0 7 0 C7 1.98 7 3.96 7 6 C4.69 6 2.38 6 0 6 C0 4.02 0 2.04 0 0 Z " fill="#B00808" transform="translate(155,37)"/>
<path d="M0 0 C0.66 0.33 1.32 0.66 2 1 C2.35706695 7.30818278 2.35706695 7.30818278 1 9.9375 C-2.26642246 11.67278693 -5.34351452 11.17982715 -9 11 C-9.33 10.34 -9.66 9.68 -10 9 C-8.329375 8.814375 -8.329375 8.814375 -6.625 8.625 C-2.96896323 8.3534187 -2.96896323 8.3534187 -1 6 C-0.60235737 4.01178687 -0.26224651 2.01055661 0 0 Z " fill="#AEAEAE" transform="translate(75,35)"/>
<path d="M0 0 C2.64 0 5.28 0 8 0 C8 1.65 8 3.3 8 5 C5.36 5 2.72 5 0 5 C0 3.35 0 1.7 0 0 Z " fill="#2F2F2F" transform="translate(167,32)"/>
<path d="M0 0 C0.66 0.33 1.32 0.66 2 1 C2.3125 4.25 2.3125 4.25 2 8 C-0.125 10.5 -0.125 10.5 -3 12 C-6.3125 11.75 -6.3125 11.75 -9 11 C-8.4225 10.731875 -7.845 10.46375 -7.25 10.1875 C-4.85605674 8.92402995 -2.95424976 7.88686183 -1 6 C-0.19053578 2.89802603 -0.19053578 2.89802603 0 0 Z " fill="#B6B6B6" transform="translate(119,35)"/>
<path d="M0 0 C1.67542976 0.28604898 3.34385343 0.61781233 5 1 C5.625 2.875 5.625 2.875 6 5 C5.34 5.66 4.68 6.32 4 7 C1.875 6.625 1.875 6.625 0 6 C-0.38218767 4.34385343 -0.71395102 2.67542976 -1 1 C-0.67 0.67 -0.34 0.34 0 0 Z " fill="#101010" transform="translate(20,34)"/>
<path d="M0 0 C0.66 0.33 1.32 0.66 2 1 C2.3125 4.25 2.3125 4.25 2 8 C-0.125 10.5 -0.125 10.5 -3 12 C-6.3125 11.75 -6.3125 11.75 -9 11 C-6.36095629 9.58622659 -3.92879371 8.62759865 -1 8 C-0.67 5.36 -0.34 2.72 0 0 Z " fill="#B5B5B5" transform="translate(97,35)"/>
<path d="M0 0 C0.66 0.66 1.32 1.32 2 2 C1.86546607 5.69968311 1.74028572 8.12262434 -0.6875 11 C-3.77979844 12.33721014 -5.78776145 11.80305964 -9 11 C-8.4225 10.7525 -7.845 10.505 -7.25 10.25 C-4.61295899 8.78497722 -2.92641136 7.32497923 -1 5 C-0.20318682 2.35815459 -0.20318682 2.35815459 0 0 Z " fill="#B6B6B6" transform="translate(141,35)"/>
<path d="M0 0 C1.67542976 0.28604898 3.34385343 0.61781233 5 1 C4.67 2.65 4.34 4.3 4 6 C3.01 6.33 2.02 6.66 1 7 C0.01 6.34 -0.98 5.68 -2 5 C-1.125 1.125 -1.125 1.125 0 0 Z " fill="#0F0F0F" transform="translate(38,34)"/>
</svg>
